<svg version="1.1" width="2214" viewBox="0 0 2214 2214" height="2214" xmlns="http://www.w3.org/2000/svg" xmlns:xlink="http://www.w3.org/1999/xlink" style="cursor: default;"><g id="artBoard" transform="translate(787,787)"><g id="obj_2" transform="translate(0,0)"><rect x="0" y="0" width="640" height="480" fill="#FFFFFF" stroke="none" stroke-width="1" fill-opacity="1"></rect><defs></defs></g></g><g id="layerGroup" transform="translate(787,787)"><g id="obj_1"><g id="obj_4" transform="matrix(1,0,0,1,46.89116668272018,376.324025390625)" opacity="1" display="inline"><text x="0" y="0" font-size="394" letter-spacing="0" font-family="Arial" font-weight="normal" font-style="normal" fill-opacity="1" fill="#000000" stroke="none" stroke-width="1" stroke-linecap="square" stroke-linejoin="miter"><tspan x="0" y="0"></tspan></text><defs></defs></g><g id="obj_14" transform="matrix(1,0,0,1,87.935,0.935)" opacity="1" display="inline"><path d="M 368.938 480 L 0 0 L 76.062 0 L 445 480 L 368.938 480 Z " fill-opacity="1" fill="#ff669a" stroke="none" stroke-width="1" stroke-linecap="square" stroke-linejoin="miter" fill-rule="evenodd" stroke-opacity="1"></path><defs></defs></g><g id="obj_15" transform="matrix(1,0,0,1,39,0)" opacity="1" display="inline"><path d="M 267.495 229.75 L 75.261 480 L 0 480 L 224.288 188.022 L 224.236 188.008 L 246.33 159.249 L 268.422 130.489 L 280.633 148.875 L 326.505 208.591 L 486.739 0 L 562 0 L 369.307 250.845 L 369.444 250.878 L 347.349 279.638 L 325.257 308.398 L 308.328 282.906 L 267.495 229.75 Z " fill-opacity="1" fill="#c1ff7a" stroke="none" stroke-width="1" stroke-linecap="square" stroke-linejoin="miter" fill-rule="evenodd"></path><defs></defs></g></g></g><g id="maniGroup" transform="translate(787,787)"><g id="nodes_maniline"><line x1="86.93500000000003" y1="481.935" x2="86.93500000000003" y2="-0.06499999999999773" id="mp_line3" stroke="#00f" stroke-width="1"></line><line x1="86.93500000000003" y1="-0.06499999999999773" x2="533.9350000000001" y2="-0.06499999999999773" id="mp_line0" stroke="#00f" stroke-width="1"></line><line x1="533.9350000000001" y1="-0.06499999999999773" x2="533.9350000000001" y2="481.935" id="mp_line1" stroke="#00f" stroke-width="1"></line><line x1="533.9350000000001" y1="481.935" x2="86.93500000000003" y2="481.935" id="mp_line2" stroke="#00f" stroke-width="1"></line><line x1="310.43500000000006" y1="-13.064999999999998" x2="310.43500000000006" y2="-0.06499999999999773" id="mp_line4" stroke="#00f" stroke-width="1"></line></g><g id="hitTestGroup"><g id="hit_obj_4" transform="matrix(1,0,0,1,46.89116668272018,376.324025390625)"></g><g id="hit_obj_14" transform="matrix(1,0,0,1,87.935,0.935)"><path fill="none" stroke="#000000" stroke-width="7" opacity="0" d="M 368.938 480 L 0 0 L 76.062 0 L 445 480 L 368.938 480 Z " style="display: none;" wfd-invisible="true"></path></g><g id="hit_obj_15" transform="matrix(1,0,0,1,39,0)"><path fill="none" stroke="#000000" stroke-width="7" opacity="0" d="M 267.495 229.75 L 75.261 480 L 0 480 L 224.288 188.022 L 224.236 188.008 L 246.33 159.249 L 268.422 130.489 L 280.633 148.875 L 326.505 208.591 L 486.739 0 L 562 0 L 369.307 250.845 L 369.444 250.878 L 347.349 279.638 L 325.257 308.398 L 308.328 282.906 L 267.495 229.75 Z " style="display: none;" wfd-invisible="true"></path></g></g><text x="0" y="0" font-size="60" letter-spacing="0" font-family="Arial" font-weight="normal" font-style="normal" style="display: none;" wfd-invisible="true">A</text><text x="0" y="0" font-size="60" letter-spacing="0" font-family="Arial" font-weight="normal" font-style="normal" style="display: none;" wfd-invisible="true">A</text><text x="0" y="0" font-size="60" letter-spacing="0" font-family="Arial" font-weight="normal" font-style="normal" style="display: none;" wfd-invisible="true">A</text><text x="0" y="0" font-size="60" letter-spacing="0" font-family="Arial" font-weight="normal" font-style="normal" style="display: none;" wfd-invisible="true">A</text><text x="0" y="0" font-size="60" letter-spacing="0" font-family="Arial" font-weight="normal" font-style="normal" style="display: none;" wfd-invisible="true">A</text><text x="0" y="0" font-size="269" letter-spacing="0" font-family="Arial" font-weight="normal" font-style="normal" style="display: none;" wfd-invisible="true">A</text><text x="0" y="0" font-size="394" letter-spacing="0" font-family="Arial" font-weight="normal" font-style="normal" style="display: none;" wfd-invisible="true">A</text><text x="0" y="0" font-size="394" letter-spacing="0" font-family="Arial" font-weight="normal" font-style="normal" style="display: none;" wfd-invisible="true">A</text><text x="0" y="0" font-size="394" letter-spacing="0" font-family="Arial" font-weight="normal" font-style="normal" style="display: none;" wfd-invisible="true">A</text><text x="0" y="0" font-size="394" letter-spacing="0" font-family="Arial" font-weight="normal" font-style="normal" style="display: none;" wfd-invisible="true">A</text><text x="0" y="0" font-size="394" letter-spacing="0" font-family="Arial" font-weight="normal" font-style="normal" style="display: none;" wfd-invisible="true">A</text><text x="0" y="0" font-size="394" letter-spacing="0" font-family="Arial" font-weight="normal" font-style="normal" style="display: none;" wfd-invisible="true">A</text><text x="0" y="0" font-size="394" letter-spacing="0" font-family="Arial" font-weight="normal" font-style="normal" style="display: none;" wfd-invisible="true">A</text><g id="nodes_mani"><rect x="83.93500000000003" y="-3.0649999999999977" width="7" height="7" id="mp_lt" fill="white" stroke="#00f" stroke-width="1" style="cursor: nwse-resize;" rx="0" ry="0" transform="rotate(0,87.43500000000003,0.4350000000000023)"></rect><rect x="307.43500000000006" y="-3.0649999999999977" width="7" height="7" id="mp_mt" fill="white" stroke="#00f" stroke-width="1" style="cursor: ns-resize;" rx="0" ry="0" transform="rotate(0,310.93500000000006,0.4350000000000023)"></rect><rect x="530.9350000000001" y="-3.0649999999999977" width="7" height="7" id="mp_rt" fill="white" stroke="#00f" stroke-width="1" style="cursor: nesw-resize;" rx="0" ry="0" transform="rotate(0,534.4350000000001,0.4350000000000023)"></rect><rect x="530.9350000000001" y="237.935" width="7" height="7" id="mp_rm" fill="white" stroke="#00f" stroke-width="1" style="cursor: ew-resize;" rx="0" ry="0" transform="rotate(0,534.4350000000001,241.435)"></rect><rect x="530.9350000000001" y="478.935" width="7" height="7" id="mp_rb" fill="white" stroke="#00f" stroke-width="1" style="cursor: nwse-resize;" rx="0" ry="0" transform="rotate(0,534.4350000000001,482.435)"></rect><rect x="307.43500000000006" y="478.935" width="7" height="7" id="mp_mb" fill="white" stroke="#00f" stroke-width="1" style="cursor: ns-resize;" rx="0" ry="0" transform="rotate(0,310.93500000000006,482.435)"></rect><rect x="83.93500000000003" y="478.935" width="7" height="7" id="mp_lb" fill="white" stroke="#00f" stroke-width="1" style="cursor: nesw-resize;" rx="0" ry="0" transform="rotate(0,87.43500000000003,482.435)"></rect><rect x="83.93500000000003" y="237.935" width="7" height="7" id="mp_lm" fill="white" stroke="#00f" stroke-width="1" style="cursor: ew-resize;" rx="0" ry="0" transform="rotate(0,87.43500000000003,241.435)"></rect><rect x="307.43500000000006" y="-16.064999999999998" width="7" height="7" rx="3.5" ry="3.5" id="mp_rotate" fill="white" stroke="#00f" stroke-width="1" transform="rotate(0,310.93500000000006,-12.564999999999998)"></rect></g></g></svg>